<?xml version="1.0" encoding="UTF-8"?> <svg xmlns="http://www.w3.org/2000/svg" width="307" height="98" viewBox="0 0 307 98" fill="none"><path d="M37.85 59.5683V42.389L0 63.5172V76.9634L2.13108 78.1476L37.85 59.5683Z" fill="#1AFD71"></path><path d="M2.13074 78.148L37.8498 97.9871V80.8058L17.3961 70.2081L2.13074 78.148Z" fill="url(#paint0_linear)"></path><path d="M44.9703 39.3981V56.5773L82.8204 35.4471V22.003L80.6893 20.8187L44.9703 39.3981Z" fill="#1AFD71"></path><path d="M80.6893 20.8187L44.9703 0.979614V18.1609L65.424 28.7586L80.6893 20.8187Z" fill="url(#paint1_linear)"></path><path d="M116.928 39.8822C120.44 39.8822 122.697 38.0628 123.762 34.3633L132.977 36.3692C132.162 40.0687 130.283 43.0158 127.334 45.2732C124.388 47.5306 120.939 48.6604 116.989 48.6604C112.161 48.6604 108.088 47.0926 104.764 43.9569C101.441 40.8212 99.8127 36.8073 99.8127 31.9172C99.8127 27.0879 101.506 23.076 104.827 19.9404C108.148 16.8047 112.224 15.2368 117.052 15.2368C120.939 15.2368 124.388 16.3666 127.334 18.5611C130.281 20.7557 132.223 23.7028 133.101 27.3394L123.697 29.5968C123.259 27.7775 122.444 26.3983 121.251 25.4571C120.059 24.5181 118.617 24.0151 116.926 24.0151C114.67 24.0151 112.851 24.7676 111.472 26.2725C110.093 27.7775 109.404 29.6597 109.404 31.9801C109.404 34.3004 110.093 36.1805 111.472 37.6247C112.851 39.0668 114.67 39.8193 116.926 39.8193V39.8822H116.928Z" fill="white"></path><path d="M165.763 20.0013C169.086 23.0741 170.777 27.0252 170.777 31.8545C170.777 36.7467 169.084 40.7585 165.763 43.8313C162.439 46.9041 158.366 48.472 153.538 48.472C148.649 48.472 144.511 46.9041 141.124 43.8313C137.738 40.7585 136.047 36.7446 136.047 31.8545C136.047 27.0252 137.74 23.0762 141.124 20.0013C144.511 16.9285 148.647 15.3607 153.538 15.3607C158.366 15.3628 162.439 16.9285 165.763 20.0013ZM158.866 37.8114C160.371 36.3065 161.123 34.3613 161.123 31.9802C161.123 29.597 160.371 27.654 158.866 26.1469C157.362 24.642 155.606 23.8895 153.601 23.8895C151.532 23.8895 149.714 24.642 148.146 26.1469C146.579 27.6519 145.826 29.597 145.826 31.9802C145.826 34.3634 146.579 36.3065 148.083 37.8114C149.588 39.3164 151.407 40.0689 153.538 40.0689C155.606 40.0689 157.362 39.3164 158.866 37.8114ZM149.15 12.1013L153.601 2.56848H165.513L158.053 12.1013H149.15Z" fill="white"></path><path d="M209.082 47.7216H199.051V45.2126C196.48 47.5329 193.219 48.6606 189.271 48.6606C185.009 48.6606 181.371 47.0927 178.362 43.9571C175.353 40.8214 173.849 36.8074 173.849 31.9173C173.849 27.0881 175.353 23.0762 178.362 19.9405C181.371 16.8048 185.007 15.237 189.271 15.237C193.221 15.237 196.482 16.3668 199.051 18.6871V2.50769H209.082V47.7216ZM196.731 37.8743C198.236 36.3694 198.988 34.4242 198.988 32.041C198.988 29.7207 198.236 27.7777 196.731 26.2098C195.226 24.642 193.408 23.8895 191.339 23.8895C189.146 23.8895 187.327 24.642 185.885 26.1469C184.443 27.6519 183.754 29.597 183.754 31.9802C183.754 34.4263 184.443 36.3694 185.885 37.8743C187.327 39.3793 189.146 40.1318 191.339 40.1318C193.408 40.1318 195.226 39.3793 196.731 37.8743Z" fill="white"></path><path d="M221.868 1.31497C223.561 1.31497 224.94 1.87881 226.07 3.00858C227.199 4.13835 227.763 5.45467 227.763 7.02251C227.763 8.59036 227.199 9.90668 226.07 10.9736C224.94 12.0405 223.561 12.5414 221.868 12.5414C220.175 12.5414 218.796 11.9776 217.73 10.9107C216.663 9.84379 216.099 8.52748 216.099 6.95963C216.099 5.39179 216.663 4.01259 217.73 2.88282C218.796 1.75305 220.175 1.18921 221.868 1.18921V1.31497ZM216.852 47.7844V16.3017H226.883V47.7823H216.852V47.7844Z" fill="white"></path><path d="M267.193 44.7094C267.193 49.4129 265.563 53.1124 262.302 55.7472C259.042 58.3819 254.78 59.6982 249.514 59.6982C242.054 59.6982 236.788 57.1893 233.714 52.1105L242.052 47.5956C243.244 49.0377 244.371 50.0417 245.438 50.6056C246.505 51.1694 247.821 51.4209 249.388 51.4209C251.708 51.4209 253.589 50.7313 255.031 49.415C256.473 48.0966 257.225 46.2164 257.225 43.7703V42.8921C254.905 44.898 251.771 45.902 247.821 45.902C243.621 45.902 240.047 44.3971 237.1 41.45C234.154 38.503 232.65 34.8034 232.65 30.4122C232.65 26.086 234.154 22.4472 237.1 19.5631C240.047 16.6789 243.621 15.2368 247.821 15.2368C251.771 15.2368 254.905 16.2408 257.225 18.2467V16.1779H267.067L267.193 44.7094ZM249.889 37.9999C251.957 37.9999 253.713 37.3103 255.155 35.9311C256.596 34.5519 257.286 32.7954 257.286 30.7266C257.286 28.6578 256.596 26.9642 255.155 25.585C253.713 24.2058 251.957 23.5162 249.889 23.5162C247.695 23.5162 245.876 24.2058 244.497 25.5221C243.118 26.8405 242.429 28.5321 242.429 30.603C242.429 32.6718 243.118 34.3654 244.56 35.7446C246.002 37.1238 247.821 37.8134 250.015 37.8134L249.889 37.9999Z" fill="white"></path><path d="M301.984 20.0014C305.307 23.0742 307 27.0252 307 31.8545C307 36.7467 305.307 40.7586 301.984 43.8314C298.66 46.9042 294.587 48.472 289.759 48.472C284.868 48.472 280.732 46.9042 277.345 43.8314C273.959 40.7586 272.268 36.7446 272.268 31.8545C272.268 27.0252 273.961 23.0763 277.345 20.0014C280.732 16.9286 284.868 15.3607 289.759 15.3607C294.585 15.3628 298.66 16.9286 301.984 20.0014ZM295.088 37.8115C296.592 36.3065 297.344 34.3614 297.344 31.9803C297.344 29.5971 296.592 27.6541 295.088 26.147C293.583 24.642 291.827 23.8895 289.822 23.8895C287.753 23.8895 285.935 24.642 284.367 26.147C282.8 27.652 282.048 29.5971 282.048 31.9803C282.048 34.3635 282.8 36.3065 284.304 37.8115C285.809 39.3165 287.626 40.069 289.759 40.069C291.827 40.069 293.581 39.3165 295.088 37.8115Z" fill="white"></path><path d="M79.2856 61.1782C82.984 61.1782 85.9302 62.3709 88.187 64.752C90.4438 67.1352 91.5732 70.2709 91.5732 74.2219V93.537H81.6052V76.3536C81.6052 74.5343 81.1044 73.0293 80.1007 71.9016C79.097 70.7719 77.7811 70.208 76.2137 70.208C74.1455 70.208 72.576 70.8976 71.4486 72.3397C70.3192 73.7818 69.7555 75.9763 69.7555 78.9234V93.5349H59.7246V62.0565H69.7555V65.0664C72.2637 62.4338 75.4614 61.1154 79.4113 61.1154L79.2856 61.1782Z" fill="white"></path><path d="M131.569 93.5997H121.538V91.0907C118.967 93.411 115.707 94.5408 111.759 94.5408C107.497 94.5408 103.859 92.9729 100.85 89.8373C97.8408 86.7016 96.3363 82.6876 96.3363 77.7975C96.3363 72.9682 97.8408 68.9564 100.85 65.8207C103.859 62.685 107.495 61.1172 111.759 61.1172C115.709 61.1172 118.969 62.247 121.538 64.5673V62.0583H131.569V93.5997ZM119.219 83.7545C120.723 82.2496 121.475 80.3044 121.475 77.9212C121.475 75.6009 120.723 73.6579 119.219 72.09C117.714 70.5222 115.895 69.7697 113.827 69.7697C111.633 69.7697 109.814 70.5222 108.373 72.0271C106.931 73.5321 106.241 75.4772 106.241 77.8604C106.241 80.3065 106.931 82.2496 108.373 83.7545C109.814 85.2595 111.633 86.012 113.827 86.012C115.895 86.012 117.714 85.2595 119.219 83.7545Z" fill="white"></path><path d="M162.16 92.1577C159.277 93.7255 156.392 94.478 153.571 94.478C149.621 94.478 146.549 93.4111 144.355 91.2794C142.161 89.1478 141.095 86.0121 141.095 81.9353V70.0213H135.389V62.0563H141.095V52.775H151.126V62.0563H160.404V70.0213H151.126V80.9333C151.126 84.0062 152.507 85.5111 155.327 85.5111C156.894 85.5111 158.399 85.073 159.841 84.2556L162.16 92.1577Z" fill="white"></path><path d="M171.5 47.1953C173.193 47.1953 174.572 47.7592 175.699 48.8889C176.828 50.0187 177.392 51.335 177.392 52.9029C177.392 54.4707 176.828 55.787 175.699 56.8539C174.57 57.9208 173.191 58.4218 171.5 58.4218C169.807 58.4218 168.428 57.8559 167.363 56.7911C166.297 55.7242 165.733 54.4078 165.733 52.84C165.733 51.2722 166.297 49.893 167.363 48.7632C168.428 47.6334 169.809 47.0696 171.5 47.0696V47.1953ZM166.483 93.6627V62.1821H176.514V93.6627H166.483Z" fill="white"></path><path d="M204.348 93.5367H194.128L181.089 61.9933H191.683L199.269 81.4342L206.791 61.9933H217.386L204.348 93.5367Z" fill="white"></path><path d="M247.917 65.8817C251.24 68.9545 252.933 72.9056 252.933 77.7349C252.933 82.6271 251.24 86.6389 247.917 89.7117C244.593 92.7845 240.52 94.3524 235.692 94.3524C230.801 94.3524 226.665 92.7845 223.278 89.7117C219.892 86.6389 218.201 82.625 218.201 77.7349C218.201 72.9056 219.894 68.9566 223.278 65.8817C226.665 62.8089 230.801 61.2411 235.692 61.2411C240.52 61.2411 244.596 62.8089 247.917 65.8817ZM241.021 83.6919C242.525 82.1869 243.277 80.2418 243.277 77.8607C243.277 75.4774 242.525 73.5344 241.021 72.0274C239.516 70.5224 237.76 69.7699 235.755 69.7699C233.687 69.7699 231.868 70.5224 230.3 72.0274C228.733 73.5323 227.981 75.4774 227.981 77.8607C227.981 80.2439 228.733 82.1869 230.237 83.6919C231.742 85.1968 233.561 85.9493 235.692 85.9493C237.76 85.9493 239.516 85.1968 241.021 83.6919Z" fill="white"></path><defs><linearGradient id="paint0_linear" x1="9.89852" y1="73.5702" x2="37.9858" y2="89.9996" gradientUnits="userSpaceOnUse"><stop stop-color="#109C46"></stop><stop offset="1" stop-color="#1AFD71"></stop></linearGradient><linearGradient id="paint1_linear" x1="44.9694" y1="14.8692" x2="80.6898" y2="14.8692" gradientUnits="userSpaceOnUse"><stop stop-color="#1AFD71"></stop><stop offset="1" stop-color="#109C46"></stop></linearGradient></defs></svg> 