<svg width="194" height="61" viewBox="0 0 194 61" fill="none" xmlns="http://www.w3.org/2000/svg">
<path d="M23.8009 36.8419V26.0393L0 39.3251V47.7803L1.34006 48.525L23.8009 36.8419Z" fill="#1AFD71"/>
<path d="M1.33997 48.5247L23.8008 60.9999V50.196L10.9391 43.532L1.33997 48.5247Z" fill="#0DCD56"/>
<path d="M28.2783 24.1584V34.9611L52.0792 21.6739V13.22L50.7391 12.4753L28.2783 24.1584Z" fill="#1AFD71"/>
<path d="M50.7391 12.4752L28.2783 0V10.804L41.14 17.468L50.7391 12.4752Z" fill="#0DCD56"/>
<path d="M73.5267 24.4628C75.7351 24.4628 77.1542 23.3188 77.8236 20.9924L83.6187 22.2538C83.1061 24.5801 81.9242 26.4333 80.0702 27.8528C78.2176 29.2723 76.0487 29.9828 73.5649 29.9828C70.529 29.9828 67.9675 28.9969 65.8777 27.0251C63.7879 25.0533 62.764 22.5293 62.764 19.4543C62.764 16.4175 63.8287 13.8948 65.9172 11.923C68.0057 9.95122 70.5685 8.96533 73.6044 8.96533C76.0487 8.96533 78.2176 9.67575 80.0702 11.0557C81.9228 12.4357 83.1443 14.2889 83.6964 16.5757L77.7827 17.9952C77.5073 16.8511 76.9948 15.9839 76.245 15.3921C75.4953 14.8016 74.5887 14.4853 73.5254 14.4853C72.1063 14.4853 70.9625 14.9584 70.0955 15.9048C69.2285 16.8512 68.795 18.0347 68.795 19.4938C68.795 20.9529 69.2285 22.1352 70.0955 23.0433C70.9625 23.9501 72.1063 24.4233 73.5254 24.4233V24.4628H73.5267Z" fill="#282828"/>
<path d="M104.235 11.9607C106.325 13.8929 107.388 16.3774 107.388 19.4142C107.388 22.4905 106.323 25.0132 104.235 26.9454C102.145 28.8777 99.5835 29.8636 96.5476 29.8636C93.4735 29.8636 90.8711 28.8777 88.7418 26.9454C86.6124 25.0132 85.5491 22.4891 85.5491 19.4142C85.5491 16.3774 86.6137 13.8942 88.7418 11.9607C90.8711 10.0284 93.4722 9.04252 96.5476 9.04252C99.5835 9.04384 102.145 10.0284 104.235 11.9607ZM99.8984 23.16C100.844 22.2137 101.318 20.9905 101.318 19.4932C101.318 17.9946 100.844 16.7728 99.8984 15.8251C98.9523 14.8788 97.8481 14.4056 96.5871 14.4056C95.2866 14.4056 94.1429 14.8788 93.1572 15.8251C92.1716 16.7715 91.6986 17.9946 91.6986 19.4932C91.6986 20.9918 92.1716 22.2137 93.1177 23.16C94.0638 24.1064 95.2075 24.5795 96.5476 24.5795C97.8481 24.5795 98.9523 24.1064 99.8984 23.16ZM93.7884 6.99297L96.5871 0.998535H104.078L99.3871 6.99297H93.7884Z" fill="#282828"/>
<path d="M131.475 29.3921H125.167V27.8144C123.55 29.2735 121.5 29.9826 119.018 29.9826C116.338 29.9826 114.05 28.9967 112.158 27.0249C110.266 25.0531 109.32 22.5291 109.32 19.4541C109.32 16.4173 110.266 13.8946 112.158 11.9228C114.05 9.95103 116.336 8.96513 119.018 8.96513C121.501 8.96513 123.552 9.67556 125.167 11.1346V0.960693H131.475V29.3921ZM123.708 23.1999C124.655 22.2536 125.128 21.0304 125.128 19.5318C125.128 18.0728 124.655 16.851 123.708 15.8651C122.762 14.8792 121.619 14.406 120.318 14.406C118.939 14.406 117.795 14.8792 116.888 15.8255C115.982 16.7719 115.548 17.995 115.548 19.4936C115.548 21.0318 115.982 22.2536 116.888 23.1999C117.795 24.1463 118.939 24.6195 120.318 24.6195C121.619 24.6195 122.762 24.1463 123.708 23.1999Z" fill="#282828"/>
<path d="M139.515 0.210797C140.58 0.210797 141.447 0.565349 142.157 1.27577C142.867 1.98619 143.222 2.81392 143.222 3.79981C143.222 4.78571 142.867 5.61343 142.157 6.28431C141.447 6.9552 140.58 7.27021 139.515 7.27021C138.45 7.27021 137.583 6.91565 136.913 6.24477C136.242 5.57389 135.888 4.74617 135.888 3.76027C135.888 2.77438 136.242 1.90711 136.913 1.19669C137.583 0.486266 138.45 0.131714 139.515 0.131714V0.210797ZM136.361 29.4317V9.63477H142.668V29.4304H136.361V29.4317Z" fill="#282828"/>
<path d="M168.016 27.4983C168.016 30.4559 166.991 32.7823 164.941 34.4391C162.89 36.0958 160.21 36.9236 156.899 36.9236C152.208 36.9236 148.897 35.3459 146.964 32.1523L152.207 29.3132C152.957 30.22 153.666 30.8514 154.336 31.2059C155.007 31.5605 155.834 31.7186 156.82 31.7186C158.279 31.7186 159.462 31.285 160.368 30.4573C161.275 29.6282 161.748 28.4459 161.748 26.9078V26.3555C160.289 27.6169 158.318 28.2482 155.834 28.2482C153.194 28.2482 150.946 27.3019 149.093 25.4487C147.241 23.5956 146.295 21.2692 146.295 18.5079C146.295 15.7875 147.241 13.4994 149.093 11.6858C150.946 9.87214 153.194 8.96533 155.834 8.96533C158.318 8.96533 160.289 9.59667 161.748 10.858V9.55713H167.937L168.016 27.4983ZM157.135 23.2792C158.435 23.2792 159.54 22.8456 160.446 21.9783C161.353 21.1111 161.786 20.0065 161.786 18.7056C161.786 17.4047 161.353 16.3398 160.446 15.4725C159.54 14.6052 158.435 14.1716 157.135 14.1716C155.755 14.1716 154.612 14.6052 153.745 15.4329C152.878 16.262 152.444 17.3256 152.444 18.6279C152.444 19.9288 152.878 20.9937 153.784 21.861C154.691 22.7283 155.834 23.1619 157.214 23.1619L157.135 23.2792Z" fill="#282828"/>
<path d="M189.893 11.9611C191.983 13.8933 193.048 16.3779 193.048 19.4146C193.048 22.4909 191.983 25.0136 189.893 26.9459C187.803 28.8781 185.242 29.864 182.206 29.864C179.131 29.864 176.53 28.8781 174.4 26.9459C172.271 25.0136 171.208 22.4896 171.208 19.4146C171.208 16.3779 172.272 13.8947 174.4 11.9611C176.53 10.0289 179.131 9.04297 182.206 9.04297C185.241 9.04429 187.803 10.0289 189.893 11.9611ZM185.557 23.1605C186.503 22.2141 186.976 20.991 186.976 19.4937C186.976 17.9951 186.503 16.7733 185.557 15.8256C184.611 14.8792 183.507 14.4061 182.246 14.4061C180.945 14.4061 179.801 14.8792 178.816 15.8256C177.83 16.7719 177.357 17.9951 177.357 19.4937C177.357 20.9923 177.83 22.2141 178.776 23.1605C179.722 24.1068 180.865 24.58 182.206 24.58C183.507 24.58 184.609 24.1068 185.557 23.1605Z" fill="#282828"/>
<path d="M49.8563 37.8539C52.182 37.8539 54.0346 38.6038 55.4537 40.1011C56.8728 41.5997 57.583 43.5715 57.583 46.056V58.2017H51.3149V47.3965C51.3149 46.2524 51 45.3061 50.3688 44.597C49.7377 43.8865 48.9102 43.532 47.9246 43.532C46.6241 43.532 45.6372 43.9656 44.9283 44.8724C44.2181 45.7792 43.8636 47.1592 43.8636 49.0124V58.2004H37.556V38.4061H43.8636V40.2988C45.4408 38.6434 47.4516 37.8143 49.9354 37.8143L49.8563 37.8539Z" fill="#282828"/>
<path d="M82.7332 58.2413H76.4255V56.6636C74.8088 58.1227 72.7585 58.8331 70.276 58.8331C67.5959 58.8331 65.3084 57.8472 63.4163 55.8754C61.5241 53.9036 60.5781 51.3796 60.5781 48.3046C60.5781 45.2679 61.5241 42.7451 63.4163 40.7734C65.3084 38.8016 67.5946 37.8157 70.276 37.8157C72.7598 37.8157 74.8101 38.5261 76.4255 39.9852V38.4075H82.7332V58.2413ZM74.9669 52.0505C75.913 51.1041 76.386 49.881 76.386 48.3824C76.386 46.9233 75.913 45.7015 74.9669 44.7156C74.0208 43.7297 72.8771 43.2565 71.5766 43.2565C70.197 43.2565 69.0532 43.7297 68.1467 44.6761C67.2401 45.6224 66.8066 46.8456 66.8066 48.3442C66.8066 49.8823 67.2401 51.1041 68.1467 52.0505C69.0532 52.9968 70.197 53.47 71.5766 53.47C72.8771 53.47 74.0208 52.9968 74.9669 52.0505Z" fill="#282828"/>
<path d="M101.97 57.3343C100.157 58.3202 98.3422 58.7934 96.5686 58.7934C94.0848 58.7934 92.1532 58.1225 90.7736 56.7821C89.394 55.4416 88.7233 53.4698 88.7233 50.9062V43.4145H85.1353V38.406H88.7233V32.5697H95.0309V38.406H100.866V43.4145H95.0309V50.2762C95.0309 52.2085 95.8992 53.1548 97.6728 53.1548C98.6584 53.1548 99.6045 52.8793 100.511 52.3653L101.97 57.3343Z" fill="#282828"/>
<path d="M107.843 29.0611C108.907 29.0611 109.774 29.4157 110.483 30.1261C111.193 30.8365 111.548 31.6643 111.548 32.6502C111.548 33.636 111.193 34.4638 110.483 35.1347C109.773 35.8055 108.906 36.1205 107.843 36.1205C106.778 36.1205 105.911 35.7647 105.242 35.0951C104.571 34.4242 104.216 33.5965 104.216 32.6106C104.216 31.6247 104.571 30.7575 105.242 30.047C105.911 29.3366 106.779 28.9821 107.843 28.9821V29.0611ZM104.688 58.2807V38.4851H110.996V58.2807H104.688Z" fill="#282828"/>
<path d="M128.498 58.2017H122.072L113.872 38.3666H120.534L125.304 50.5914L130.035 38.3666H136.697L128.498 58.2017Z" fill="#282828"/>
<path d="M155.895 40.8113C157.985 42.7436 159.05 45.2281 159.05 48.2648C159.05 51.3411 157.985 53.8638 155.895 55.7961C153.805 57.7283 151.244 58.7142 148.208 58.7142C145.132 58.7142 142.531 57.7283 140.402 55.7961C138.273 53.8638 137.209 51.3398 137.209 48.2648C137.209 45.2281 138.274 42.7449 140.402 40.8113C142.531 38.8791 145.132 37.8932 148.208 37.8932C151.244 37.8932 153.807 38.8791 155.895 40.8113ZM151.559 52.0107C152.505 51.0643 152.978 49.8412 152.978 48.3439C152.978 46.8453 152.505 45.6235 151.559 44.6758C150.613 43.7295 149.508 43.2563 148.247 43.2563C146.947 43.2563 145.803 43.7295 144.817 44.6758C143.832 45.6222 143.359 46.8453 143.359 48.3439C143.359 49.8425 143.832 51.0643 144.778 52.0107C145.724 52.957 146.868 53.4302 148.208 53.4302C149.508 53.4302 150.613 52.957 151.559 52.0107Z" fill="#282828"/>
</svg>
